<mxfile host="65bd71144e">
    <diagram id="5uNTRe_jx3mkHTlvaJIx" name="Pagina-1">
        <mxGraphModel dx="816" dy="1633" grid="1" gridSize="10" guides="1" tooltips="1" connect="1" arrows="1" fold="1" page="1" pageScale="1" pageWidth="827" pageHeight="1169" math="0" shadow="0">
            <root>
                <mxCell id="0"/>
                <mxCell id="1" parent="0"/>
                <mxCell id="2" value="App" style="rounded=0;whiteSpace=wrap;html=1;" parent="1" vertex="1">
                    <mxGeometry x="354" y="40" width="120" height="60" as="geometry"/>
                </mxCell>
                <mxCell id="3" value="Area search" style="rounded=0;whiteSpace=wrap;html=1;" parent="1" vertex="1">
                    <mxGeometry x="234" y="130" width="120" height="60" as="geometry"/>
                </mxCell>
                <mxCell id="4" value="Area visulizzazione dato" style="rounded=0;whiteSpace=wrap;html=1;" parent="1" vertex="1">
                    <mxGeometry x="474" y="130" width="120" height="60" as="geometry"/>
                </mxCell>
                <mxCell id="6" value="Ho un input (v-model da mettere alla fine dell' api) e un bottone(evento che scatena la chiamata-emit)&lt;br&gt;&lt;br&gt;NB resettare api dopo evento" style="whiteSpace=wrap;html=1;aspect=fixed;" parent="1" vertex="1">
                    <mxGeometry y="90" width="150" height="150" as="geometry"/>
                </mxCell>
                <mxCell id="7" value="ul con la liosta dei dati cercati, servirÃ  un vif per visualizzare il dato solo a chiamata compiuta" style="whiteSpace=wrap;html=1;aspect=fixed;" parent="1" vertex="1">
                    <mxGeometry x="670" y="88" width="154" height="154" as="geometry"/>
                </mxCell>
                <mxCell id="8" value="&lt;h1&gt;&lt;br&gt;&lt;/h1&gt;&lt;div&gt;scrivo in search&lt;/div&gt;&lt;div&gt;tramite emit sul bottone faccio la chiamata in app&lt;/div&gt;&lt;div&gt;cha passa i dati a visualizzazione&lt;/div&gt;" style="text;html=1;strokeColor=none;fillColor=none;spacing=5;spacingTop=-20;whiteSpace=wrap;overflow=hidden;rounded=0;" parent="1" vertex="1">
                    <mxGeometry x="140" y="-30" width="190" height="120" as="geometry"/>
                </mxCell>
                <mxCell id="9" value="film" style="rounded=0;whiteSpace=wrap;html=1;" vertex="1" parent="1">
                    <mxGeometry x="400" y="210" width="120" height="60" as="geometry"/>
                </mxCell>
                <mxCell id="10" value="tv" style="rounded=0;whiteSpace=wrap;html=1;" vertex="1" parent="1">
                    <mxGeometry x="540" y="210" width="120" height="60" as="geometry"/>
                </mxCell>
                <mxCell id="11" value="sia filmche tv ricevono da search delle props(array) per visualizzare le loro flag e immagini" style="whiteSpace=wrap;html=1;aspect=fixed;" vertex="1" parent="1">
                    <mxGeometry x="414" y="310" width="130" height="130" as="geometry"/>
                </mxCell>
            </root>
        </mxGraphModel>
    </diagram>
</mxfile>